<svg width="34" height="34" viewBox="0 0 34 34" fill="none" xmlns="http://www.w3.org/2000/svg">
<path d="M0.714288 17C0.714288 25.9938 8.00622 33.2857 17 33.2857C25.9938 33.2857 33.2857 25.9938 33.2857 17C33.2857 8.00622 25.9938 0.714294 17 0.714294C8.00622 0.714294 0.714288 8.00622 0.714288 17ZM18.6964 8.85715C18.6964 9.30707 18.5177 9.73857 18.1996 10.0567C17.8814 10.3749 17.4499 10.5536 17 10.5536C16.5501 10.5536 16.1186 10.3749 15.8004 10.0567C15.4823 9.73857 15.3036 9.30707 15.3036 8.85715C15.3036 8.40723 15.4823 7.97574 15.8004 7.6576C16.1186 7.33945 16.5501 7.16072 17 7.16072C17.4499 7.16072 17.8814 7.33945 18.1996 7.6576C18.5177 7.97574 18.6964 8.40723 18.6964 8.85715V8.85715ZM17 12.9286C17.3599 12.9286 17.7051 13.0716 17.9596 13.3261C18.2142 13.5806 18.3571 13.9258 18.3571 14.2857V25.1429C18.3571 25.5028 18.2142 25.848 17.9596 26.1025C17.7051 26.357 17.3599 26.5 17 26.5C16.6401 26.5 16.2949 26.357 16.0404 26.1025C15.7858 25.848 15.6429 25.5028 15.6429 25.1429V14.2857C15.6429 13.9258 15.7858 13.5806 16.0404 13.3261C16.2949 13.0716 16.6401 12.9286 17 12.9286V12.9286Z" fill="white"/>
</svg>
