<svg width="30" height="30" viewBox="0 0 30 30" fill="none" xmlns="http://www.w3.org/2000/svg">
<path d="M7.73375 10H22.265L21.3963 23.9062C21.3565 24.541 21.0763 25.1367 20.6128 25.5721C20.1493 26.0076 19.5372 26.25 18.9013 26.25H11.0988C10.4628 26.25 9.85072 26.0076 9.38719 25.5721C8.92366 25.1367 8.6435 24.541 8.60375 23.9062L7.73375 10ZM23.75 6.25V8.75H6.25V6.25H10V5C10 4.33696 10.2634 3.70107 10.7322 3.23223C11.2011 2.76339 11.837 2.5 12.5 2.5H17.5C18.163 2.5 18.7989 2.76339 19.2678 3.23223C19.7366 3.70107 20 4.33696 20 5V6.25H23.75ZM12.5 6.25H17.5V5H12.5V6.25Z" fill="#744AFF"/>
</svg>
